<?xml version="1.0" standalone="no"?>
<!DOCTYPE svg PUBLIC "-//W3C//DTD SVG 20010904//EN"
 "http://www.w3.org/TR/2001/REC-SVG-20010904/DTD/svg10.dtd">
<svg version="1.0" xmlns="http://www.w3.org/2000/svg"
 width="256.000000pt" height="256.000000pt" viewBox="0 0 256.000000 256.000000"
 preserveAspectRatio="xMidYMid meet">
<metadata>
Created by potrace 1.14, written by Peter Selinger 2001-2017
</metadata>
<g transform="translate(0.000000,256.000000) scale(0.100000,-0.100000)"
fill="#000000" stroke="none">
<path d="M1160 1979 c-19 -5 -52 -14 -73 -19 -46 -13 -73 -50 -58 -79 16 -29
42 -33 92 -16 61 22 182 29 254 16 74 -13 187 -69 241 -119 95 -86 161 -220
167 -336 2 -47 0 -50 -33 -67 -48 -25 -179 -58 -265 -67 -108 -11 -381 -7
-465 7 -85 14 -194 47 -227 69 -20 13 -22 20 -17 66 3 28 12 72 20 98 20 63
15 90 -18 102 -38 13 -62 -11 -82 -85 -10 -33 -23 -62 -29 -63 -7 -2 -66 -13
-132 -26 -329 -63 -535 -184 -535 -315 0 -71 62 -147 166 -202 64 -34 206 -84
294 -103 30 -7 60 -14 67 -16 9 -2 8 -17 -4 -58 -18 -64 -12 -101 19 -109 36
-10 56 10 76 76 l18 62 40 -1 c35 -1 71 -5 179 -19 31 -4 246 -17 325 -19 l45
-1 5 -83 c5 -84 14 -102 50 -102 36 0 45 18 50 102 l5 83 45 1 c174 5 334 18
445 35 102 15 100 16 114 -47 15 -66 42 -98 74 -88 41 12 46 39 23 116 -16 51
-13 58 19 58 40 0 229 61 310 100 102 49 159 98 181 155 31 81 3 150 -87 217
-98 72 -336 151 -549 181 -21 3 -29 15 -50 78 -73 212 -225 358 -431 412 -64
16 -218 20 -269 6z m-432 -687 c106 -76 282 -108 582 -106 320 2 522 60 568
163 19 41 2 41 167 5 164 -35 331 -102 379 -153 42 -45 43 -73 2 -113 -75 -73
-227 -129 -496 -183 -8 -1 -40 -6 -70 -10 -30 -3 -68 -9 -83 -11 -193 -31
-719 -36 -917 -9 -14 2 -50 6 -80 10 -326 40 -581 123 -657 214 -30 35 -29 54
7 94 54 62 214 126 425 170 l110 23 16 -36 c9 -20 30 -47 47 -58z"/>
<path d="M541 1173 c-26 -17 -27 -54 -3 -76 24 -21 61 -11 73 20 18 48 -29 85
-70 56z"/>
<path d="M1959 1169 c-11 -11 -18 -27 -15 -36 3 -8 6 -19 6 -24 0 -5 12 -14
27 -20 24 -9 31 -7 51 16 20 24 21 30 9 48 -22 33 -54 40 -78 16z"/>
<path d="M882 1078 c-26 -26 0 -88 36 -88 17 0 52 37 52 54 0 37 -61 61 -88
34z"/>
<path d="M1606 1074 c-21 -21 -20 -40 4 -64 25 -25 42 -25 63 -2 46 51 -19
115 -67 66z"/>
<path d="M1249 1051 c-20 -16 -22 -23 -14 -47 9 -24 16 -29 45 -29 29 0 36 5
45 29 8 24 6 31 -14 47 -13 10 -27 19 -31 19 -4 0 -18 -9 -31 -19z"/>
<path d="M858 1818 c-24 -20 -28 -44 -12 -67 20 -27 59 -27 78 1 20 29 20 34
-4 58 -23 23 -40 25 -62 8z"/>
</g>
</svg>
